<?xml version="1.0" standalone="no"?>
<!DOCTYPE svg PUBLIC "-//W3C//DTD SVG 20010904//EN"
 "http://www.w3.org/TR/2001/REC-SVG-20010904/DTD/svg10.dtd">
<svg version="1.0" xmlns="http://www.w3.org/2000/svg"
 width="48.000000pt" height="48.000000pt" viewBox="0 0 48.000000 48.000000"
 preserveAspectRatio="xMidYMid meet">

<g transform="translate(0.000000,48.000000) scale(0.100000,-0.100000)"
fill="#000000" stroke="none">
<path d="M179 425 c-87 -28 -149 -127 -134 -215 10 -57 56 -123 101 -146 60
-29 150 -26 201 8 103 68 122 202 40 294 -55 63 -128 84 -208 59z m31 -160 l0
-95 55 0 c42 0 55 -3 55 -15 0 -12 -14 -15 -70 -15 l-70 0 0 110 c0 91 3 110
15 110 12 0 15 -17 15 -95z"/>
</g>
</svg>
